HIERARCHY
ROOT Hips
{
    OFFSET   0.000000   0.000000   0.000000
    CHANNELS 6 Xposition Yposition Zposition Zrotation Xrotation Yrotation
    JOINT Chest
    {
        OFFSET   0.000000   8.007230   0.000000
        CHANNELS 3 Zrotation Xrotation Yrotation
        JOINT Chest2
        {
            OFFSET   0.000000  22.077100   0.000000
            CHANNELS 3 Zrotation Xrotation Yrotation
            JOINT Neck
            {
                OFFSET   0.000000  23.254800  -0.000021
                CHANNELS 3 Zrotation Xrotation Yrotation
                JOINT Head
                {
                    OFFSET   0.000000  14.370000   1.956610
                    CHANNELS 3 Zrotation Xrotation Yrotation
                    End Site
                    {
                        OFFSET   0.000000  19.566000   0.000000
                    }
                }
            }
            JOINT LeftCollar
            {
                OFFSET   3.911900  19.017000  -0.467063
                CHANNELS 3 Zrotation Xrotation Yrotation
                JOINT LeftShoulder
                {
                    OFFSET  10.383700   0.000000   0.000000
                    CHANNELS 3 Zrotation Xrotation Yrotation
                    JOINT LeftElbow
                    {
                        OFFSET  26.662100   0.001529   0.000325
                        CHANNELS 3 Zrotation Xrotation Yrotation
                        JOINT LeftWrist
                        {
                            OFFSET  28.869000  -0.000011  -0.000096
                            CHANNELS 3 Zrotation Xrotation Yrotation
                            JOINT LeftFinger0
                            {
                                OFFSET   2.044650  -2.323460   3.252850
                                CHANNELS 3 Zrotation Xrotation Yrotation
                                JOINT LeftFinger01
                                {
                                    OFFSET   3.088130   0.000000   0.000000
                                    CHANNELS 3 Zrotation Xrotation Yrotation
                                    JOINT LeftFinger02
                                    {
                                        OFFSET   2.639460   0.000000   0.000000
                                        CHANNELS 3 Zrotation Xrotation Yrotation
                                        End Site
                                        {
                                            OFFSET   2.582190   0.000000   0.000000
                                        }
                                    }
                                }
                            }
                            JOINT LeftFinger1
                            {
                                OFFSET   8.364480   0.000000   3.252850
                                CHANNELS 3 Zrotation Xrotation Yrotation
                                JOINT LeftFinger11
                                {
                                    OFFSET   4.646930   0.000000   0.000000
                                    CHANNELS 3 Zrotation Xrotation Yrotation
                                    JOINT LeftFinger12
                                    {
                                        OFFSET   2.323460   0.000000   0.000000
                                        CHANNELS 3 Zrotation Xrotation Yrotation
                                        End Site
                                        {
                                            OFFSET   2.273050   0.000000   0.000000
                                        }
                                    }
                                }
                            }
                            JOINT LeftFinger2
                            {
                                OFFSET   8.364480   0.000016   1.078090
                                CHANNELS 3 Zrotation Xrotation Yrotation
                                JOINT LeftFinger21
                                {
                                    OFFSET   5.111620   0.000000   0.000000
                                    CHANNELS 3 Zrotation Xrotation Yrotation
                                    JOINT LeftFinger22
                                    {
                                        OFFSET   2.788160   0.000017   0.000000
                                        CHANNELS 3 Zrotation Xrotation Yrotation
                                        End Site
                                        {
                                            OFFSET   2.727660   0.000000   0.000000
                                        }
                                    }
                                }
                            }
                            JOINT LeftFinger3
                            {
                                OFFSET   7.899780   0.000015  -1.078090
                                CHANNELS 3 Zrotation Xrotation Yrotation
                                JOINT LeftFinger31
                                {
                                    OFFSET   4.646920   0.000000   0.000000
                                    CHANNELS 3 Zrotation Xrotation Yrotation
                                    JOINT LeftFinger32
                                    {
                                        OFFSET   2.323470   0.000000   0.000000
                                        CHANNELS 3 Zrotation Xrotation Yrotation
                                        End Site
                                        {
                                            OFFSET   2.273050   0.000000   0.000000
                                        }
                                    }
                                }
                            }
                            JOINT LeftFinger4
                            {
                                OFFSET   7.435090   0.000000  -3.252850
                                CHANNELS 3 Zrotation Xrotation Yrotation
                                JOINT LeftFinger41
                                {
                                    OFFSET   3.717550   0.000000   0.000000
                                    CHANNELS 3 Zrotation Xrotation Yrotation
                                    JOINT LeftFinger42
                                    {
                                        OFFSET   1.858760   0.000000   0.000000
                                        CHANNELS 3 Zrotation Xrotation Yrotation
                                        End Site
                                        {
                                            OFFSET   1.818440   0.000000   0.000000
                                        }
                                    }
                                }
                            }
                        }
                    }
                }
            }
            JOINT RightCollar
            {
                OFFSET  -3.911900  19.017000  -0.467062
                CHANNELS 3 Zrotation Xrotation Yrotation
                JOINT RightShoulder
                {
                    OFFSET -10.383700   0.000015   0.000000
                    CHANNELS 3 Zrotation Xrotation Yrotation
                    JOINT RightElbow
                    {
                        OFFSET -26.662100   0.001341   0.000385
                        CHANNELS 3 Zrotation Xrotation Yrotation
                        JOINT RightWrist
                        {
                            OFFSET -28.869000   0.000025  -0.000080
                            CHANNELS 3 Zrotation Xrotation Yrotation
                            JOINT RightFinger0
                            {
                                OFFSET  -2.044650  -2.323490   3.252850
                                CHANNELS 3 Zrotation Xrotation Yrotation
                                JOINT RightFinger01
                                {
                                    OFFSET  -3.088130   0.000000   0.000000
                                    CHANNELS 3 Zrotation Xrotation Yrotation
                                    JOINT RightFinger02
                                    {
                                        OFFSET  -2.639460   0.000000   0.000000
                                        CHANNELS 3 Zrotation Xrotation Yrotation
                                        End Site
                                        {
                                            OFFSET  -2.582190   0.000000   0.000000
                                        }
                                    }
                                }
                            }
                            JOINT RightFinger1
                            {
                                OFFSET  -8.364480   0.000000   3.252850
                                CHANNELS 3 Zrotation Xrotation Yrotation
                                JOINT RightFinger11
                                {
                                    OFFSET  -4.646930   0.000000   0.000000
                                    CHANNELS 3 Zrotation Xrotation Yrotation
                                    JOINT RightFinger12
                                    {
                                        OFFSET  -2.323470   0.000000   0.000000
                                        CHANNELS 3 Zrotation Xrotation Yrotation
                                        End Site
                                        {
                                            OFFSET  -2.273050   0.000000   0.000000
                                        }
                                    }
                                }
                            }
                            JOINT RightFinger2
                            {
                                OFFSET  -8.364480   0.000000   1.078090
                                CHANNELS 3 Zrotation Xrotation Yrotation
                                JOINT RightFinger21
                                {
                                    OFFSET  -5.111610   0.000000   0.000000
                                    CHANNELS 3 Zrotation Xrotation Yrotation
                                    JOINT RightFinger22
                                    {
                                        OFFSET  -2.788160   0.000000   0.000000
                                        CHANNELS 3 Zrotation Xrotation Yrotation
                                        End Site
                                        {
                                            OFFSET  -2.727660   0.000000   0.000000
                                        }
                                    }
                                }
                            }
                            JOINT RightFinger3
                            {
                                OFFSET  -7.899780   0.000000  -1.078090
                                CHANNELS 3 Zrotation Xrotation Yrotation
                                JOINT RightFinger31
                                {
                                    OFFSET  -4.646920   0.000000   0.000000
                                    CHANNELS 3 Zrotation Xrotation Yrotation
                                    JOINT RightFinger32
                                    {
                                        OFFSET  -2.323470   0.000000   0.000000
                                        CHANNELS 3 Zrotation Xrotation Yrotation
                                        End Site
                                        {
                                            OFFSET  -2.273050   0.000000   0.000000
                                        }
                                    }
                                }
                            }
                            JOINT RightFinger4
                            {
                                OFFSET  -7.435090   0.000000  -3.252850
                                CHANNELS 3 Zrotation Xrotation Yrotation
                                JOINT RightFinger41
                                {
                                    OFFSET  -3.717550   0.000000   0.000000
                                    CHANNELS 3 Zrotation Xrotation Yrotation
                                    JOINT RightFinger42
                                    {
                                        OFFSET  -1.858770   0.000000   0.000000
                                        CHANNELS 3 Zrotation Xrotation Yrotation
                                        End Site
                                        {
                                            OFFSET  -1.818440   0.000000   0.000000
                                        }
                                    }
                                }
                            }
                        }
                    }
                }
            }
        }
    }
    JOINT LeftHip
    {
        OFFSET   9.783010   0.000000   0.000000
        CHANNELS 3 Zrotation Xrotation Yrotation
        JOINT LeftKnee
        {
            OFFSET   0.000070 -41.789100   0.000028
            CHANNELS 3 Zrotation Xrotation Yrotation
            JOINT LeftAnkle
            {
                OFFSET   0.000087 -41.133200  -0.000100
                CHANNELS 3 Zrotation Xrotation Yrotation
                JOINT LeftToe
                {
                    OFFSET   0.000000  -6.358960  14.674500
                    CHANNELS 3 Zrotation Xrotation Yrotation
                    End Site
                    {
                        OFFSET   0.000000   0.000000   3.913200
                    }
                }
            }
        }
    }
    JOINT RightHip
    {
        OFFSET  -9.783020   0.000000   0.000000
        CHANNELS 3 Zrotation Xrotation Yrotation
        JOINT RightKnee
        {
            OFFSET   0.000044 -41.789100  -0.000870
            CHANNELS 3 Zrotation Xrotation Yrotation
            JOINT RightAnkle
            {
                OFFSET  -0.000090 -41.133200  -0.000245
                CHANNELS 3 Zrotation Xrotation Yrotation
                JOINT RightToe
                {
                    OFFSET   0.000000  -6.358960  14.674500
                    CHANNELS 3 Zrotation Xrotation Yrotation
                    End Site
                    {
                        OFFSET   0.000000   0.000000   3.913200
                    }
                }
            }
        }
    }
}
MOTION
Frames: 5
Frame Time:   0.016667
 -0.065647  89.976000   0.544528  -1.712650  -9.957550   0.341694   0.391190   6.290920  -0.169440   0.808749  12.580600  -0.386158   1.953810  -4.665780   0.157176   3.268380  -9.428250   9.554540  -1.495280  -6.040850   2.041000 -25.433100  33.142800 -81.446600  -7.886180 -20.702800 -116.286000  47.370900 -28.312600  12.538700  60.718100  44.655000 -89.124300  -6.819330  -0.003689  -0.000367   1.590330  -0.003428   0.005609 -12.629900   2.375220 -10.476700 -10.512400   0.001044   0.000203  -7.358690  -0.000426   0.001867 -17.301600   3.229130 -10.248200 -17.590800  -0.006579   0.000489 -11.715500  -0.005336   0.001178  -9.464790   1.287230  -7.693830  -9.551060  -0.003588  -0.004948  -6.361020   0.006911  -0.008639 -11.518700   1.332590  -6.508320 -17.392600   0.000619   0.001991 -11.583400   0.000314   0.006237   8.801780  -0.317197   8.722550  68.419100  15.342200  -2.492350   1.781450  -4.378240  17.265000 -24.312000 -22.247600  -1.460210 -34.471500  28.842300  65.297000  33.803700  -0.003850   0.002665  11.901800  -0.000957  -0.000113  44.057100   6.627520   6.801400  36.369400   0.001733  -0.004678  26.349700   0.003974  -0.001165  33.688000  -1.976210  -2.961470  50.608600   0.005253  -0.004727  33.705400   0.006174  -0.003043  45.099500  -2.523650  -2.512440  54.447600  -0.003683  -0.001031  38.702400  -0.000452  -0.001056  51.963000  -5.310950  -4.141360  78.232700  -0.000036  -0.003220  52.102900   0.000788  -0.008827   0.909306   9.975810   3.233420  -0.347396   1.676650  13.976800  -3.398460  -4.117650   6.343250   0.000000   0.000000   0.000000   4.201760   7.132900  -7.074910  -1.648280   7.045240  -9.865270 -10.010500  -1.777360   3.176930   0.000000   0.000000  -0.000000
 -0.066872  89.974400   0.583334  -1.709940  -9.940560   0.354602   0.395650   6.257900  -0.169387   0.817424  12.514500  -0.386035   1.949160  -4.659130   0.157286   3.256870  -9.414730   9.475720  -1.482360  -6.044220   2.053750 -25.440600  33.117800 -81.465400  -7.873160 -20.727700 -116.296000  47.366800 -28.203400  12.637900  60.452200  44.625900 -89.059000  -6.826410  -0.003758  -0.000362   1.586790  -0.003482   0.005667 -12.649400   2.380800 -10.487300 -10.528200   0.001192   0.000125  -7.369760  -0.000277   0.001830 -17.329100   3.236880 -10.257800 -17.619600  -0.006870   0.000536 -11.734700  -0.005490   0.001178  -9.422470   1.282320  -7.680650  -9.508450  -0.003441  -0.004727  -6.332640   0.007084  -0.008793 -11.511800   1.334760  -6.525320 -17.381800   0.000530   0.002006 -11.576200   0.000260   0.006189   8.799610  -0.317046   8.688560  68.456100  15.299400  -2.514670   1.752510  -4.361850  17.260800 -24.363200 -22.265300  -1.476780 -34.471300  28.860700  65.308900  33.818400  -0.003864   0.002718  11.909200  -0.001052  -0.000115  44.092700   6.617210   6.783170  36.397000   0.001762  -0.004642  26.375900   0.003961  -0.001148  33.707900  -1.994400  -2.986220  50.639900   0.005186  -0.004706  33.726200   0.006171  -0.003098  45.166300  -2.547940  -2.530590  54.447600  -0.003684  -0.001051  38.719100  -0.000445  -0.001092  51.983700  -5.319440  -4.145200  78.264500  -0.000069  -0.003265  52.124200   0.000844  -0.008766   0.916020   9.981840   3.229440  -0.356746   1.680220  13.975800  -3.396000  -4.143710   6.335480  -0.000000   0.000000   0.000000   4.204260   7.136050  -7.054920  -1.643400   7.050600  -9.851370 -10.011400  -1.790870   3.126370  -0.000000   0.000000   0.000000
 -0.066345  89.974100   0.619984  -1.705610  -9.921700   0.376531   0.403414   6.224700  -0.172104   0.833224  12.448000  -0.392160   1.941930  -4.651430   0.157394   3.242440  -9.398990   9.405490  -1.482480  -6.048890   2.047590 -25.472400  33.098500 -81.442000  -7.851460 -20.732800 -116.328000  47.327700 -28.165400  12.616800  60.322500  44.562900 -88.900500  -6.836710  -0.003823  -0.000376   1.581630  -0.003538   0.005726 -12.687500   2.375120 -10.431800 -10.558700   0.001329   0.000061  -7.391120  -0.000143   0.001773 -17.350900   3.222980 -10.204100 -17.639900  -0.007147   0.000583 -11.748200  -0.005647   0.001167  -9.490360   1.278870  -7.605740  -9.575040  -0.003282  -0.004506  -6.376990   0.007257  -0.008957 -11.516800   1.321140  -6.462510 -17.385400   0.000458   0.002021 -11.578600   0.000211   0.006143   8.795310  -0.316580   8.660350  68.484300  15.264500  -2.533840   1.727420  -4.332880  17.248300 -24.395000 -22.288200  -1.492600 -34.436200  28.847400  65.331500  33.844000  -0.003882   0.002717  11.922000  -0.001148  -0.000122  44.153500   6.604170   6.755760  36.444800   0.001783  -0.004607  26.421300   0.003949  -0.001133  33.744500  -2.012650  -3.009340  50.696000   0.005120  -0.004681  33.763600   0.006169  -0.003151  45.274400  -2.573590  -2.546420  54.447600  -0.003685  -0.001069  38.745800  -0.000437  -0.001130  52.031500  -5.339060  -4.153460  78.337900  -0.000115  -0.003311  52.173100   0.000908  -0.008716   0.924295   9.981050   3.229500  -0.366471   1.687350  13.968900  -3.394130  -4.166850   6.321960   0.000000   0.000000  -0.000000   4.200440   7.141860  -7.032310  -1.629990   7.050550  -9.853570 -10.011900  -1.805060   3.081240  -0.000000   0.000000   0.000000
 -0.064103  89.974000   0.655933  -1.700320  -9.902130   0.403747   0.412270   6.191680  -0.174821   0.851203  12.381900  -0.398282   1.933650  -4.646810   0.157502   3.229890  -9.390240   9.341410  -1.483040  -6.051680   2.037830 -25.525900  33.078900 -81.406300  -7.802790 -20.737200 -116.360000  47.284800 -28.128700  12.563900  60.269500  44.499200 -88.738900  -6.858070  -0.003890  -0.000398   1.570960  -0.003590   0.005784 -12.716800   2.360440 -10.343700 -10.579300   0.001461  -0.000000  -7.405500   0.000000   0.001712 -17.367200   3.199330 -10.118000 -17.650400  -0.007425   0.000627 -11.755100  -0.005804   0.001147  -9.591060   1.274620  -7.501500  -9.674480  -0.003118  -0.004289  -6.443200   0.007430  -0.009122 -11.534200   1.305620  -6.371950 -17.410300   0.000385   0.002037 -11.595300   0.000157   0.006094   8.791140  -0.314262   8.631270  68.508300  15.234000  -2.553220   1.709990  -4.303590  17.238300 -24.408400 -22.302100  -1.501090 -34.413700  28.832200  65.352000  33.861500  -0.003900   0.002716  11.930800  -0.001240  -0.000129  44.194100   6.595890   6.737890  36.476800   0.001803  -0.004570  26.451700   0.003938  -0.001117  33.769200  -2.023590  -3.022890  50.733900   0.005053  -0.004654  33.788800   0.006166  -0.003202  45.345900  -2.589050  -2.555450  54.447600  -0.003685  -0.001086  38.763600  -0.000429  -0.001167  52.067000  -5.353590  -4.159210  78.392300  -0.000165  -0.003356  52.209300   0.000974  -0.008669   0.929376   9.980250   3.230010  -0.373981   1.692390  13.956100  -3.392580  -4.188050   6.305610   0.000000   0.000000   0.000000   4.195380   7.149950  -7.011890  -1.614030   7.050290  -9.864030 -10.012000  -1.820530   3.044030   0.000000   0.000000   0.000000
 -0.058855  89.973800   0.692729  -1.694580  -9.881080   0.433357   0.421023   6.157590  -0.174679   0.868489  12.313700  -0.398090   1.922910  -4.649870   0.157609   3.216810  -9.397100   9.286250  -1.472150  -6.033630   2.030620 -25.568500  33.057200 -81.393500  -7.751770 -20.751200 -116.382000  47.230200 -28.059500  12.462800  60.339900  44.466800 -88.655500  -6.903130  -0.003964  -0.000415   1.548440  -0.003633   0.005840 -12.662200   2.338840 -10.299600 -10.529200   0.001592  -0.000062  -7.370450   0.000184   0.001661 -17.360600   3.183260 -10.073000 -17.641800  -0.007717   0.000671 -11.749400  -0.005954   0.001122  -9.657090   1.265150  -7.395760  -9.739250  -0.002956  -0.004079  -6.486350   0.007603  -0.009284 -11.576400   1.303800  -6.332960 -17.474400   0.000295   0.002055 -11.638000   0.000062   0.006036   8.787070  -0.299319   8.593110  68.527800  15.209700  -2.570050   1.704230  -4.290090  17.236000 -24.371100 -22.280800  -1.484080 -34.425500  28.837300  65.357400  33.845500  -0.003915   0.002735  11.922800  -0.001318  -0.000131  44.193300   6.596140   6.738370  36.476100   0.001826  -0.004527  26.451000   0.003928  -0.001101  33.766200  -2.019890  -3.017720  50.729100   0.004987  -0.004624  33.785600   0.006163  -0.003253  45.347400  -2.584670  -2.551040  54.447600  -0.003683  -0.001106  38.764000  -0.000423  -0.001201  52.069200  -5.354430  -4.158830  78.395500  -0.000215  -0.003399  52.211400   0.001039  -0.008622   0.925152   9.984480   3.237570  -0.376563   1.690090  13.935400  -3.391490  -4.207480   6.288010  -0.000000   0.000000  -0.000000   4.189460   7.160300  -6.998500  -1.597800   7.043370  -9.889120 -10.011400  -1.839480   3.025040   0.000000   0.000000   0.000000
